%TF.GenerationSoftware,Altium Limited,Altium Designer,23.5.1 (21)*%
G04 Layer_Color=8388736*
%FSLAX45Y45*%
%MOMM*%
%TF.SameCoordinates,8EFB5E64-3944-4511-97F7-C7C57B94F044*%
%TF.FilePolarity,Negative*%
%TF.FileFunction,Soldermask,Top*%
%TF.Part,CustomerPanel*%
G01*
G75*
%TA.AperFunction,SMDPad,CuDef*%
G04:AMPARAMS|DCode=16|XSize=1.45mm|YSize=0.3mm|CornerRadius=0.0495mm|HoleSize=0mm|Usage=FLASHONLY|Rotation=90.000|XOffset=0mm|YOffset=0mm|HoleType=Round|Shape=RoundedRectangle|*
%AMROUNDEDRECTD16*
21,1,1.45000,0.20100,0,0,90.0*
21,1,1.35100,0.30000,0,0,90.0*
1,1,0.09900,0.10050,0.67550*
1,1,0.09900,0.10050,-0.67550*
1,1,0.09900,-0.10050,-0.67550*
1,1,0.09900,-0.10050,0.67550*
%
%ADD16ROUNDEDRECTD16*%
%TA.AperFunction,BGAPad,CuDef*%
%ADD17C,0.25000*%
%TA.AperFunction,ConnectorPad*%
%ADD41R,0.90080X0.35080*%
%ADD42R,1.10080X0.33080*%
%TA.AperFunction,SMDPad,CuDef*%
%ADD43R,0.65080X0.65080*%
%ADD44R,0.65080X0.65080*%
%ADD45R,0.75080X0.95080*%
%ADD46R,0.25080X0.40080*%
%ADD47R,0.37080X0.37080*%
%ADD48R,0.40080X0.25080*%
%ADD49R,5.65080X5.65080*%
%ADD50O,0.30080X0.85080*%
%ADD51O,0.85080X0.30080*%
%ADD52C,0.25880*%
%ADD53R,0.95080X0.75080*%
%ADD54R,1.35080X1.85080*%
%TA.AperFunction,WasherPad*%
%ADD55R,0.20320X0.20320*%
%ADD56C,0.20320*%
%TA.AperFunction,ConnectorPad*%
%ADD57R,8.55080X1.25080*%
%ADD58R,2.00080X1.25080*%
%TA.AperFunction,ComponentPad*%
%ADD59C,0.70080*%
%TA.AperFunction,ViaPad*%
%ADD60C,0.55080*%
D16*
X2252500Y2987497D02*
D03*
X2302500D02*
D03*
X2352500D02*
D03*
X2402500D02*
D03*
X2452500D02*
D03*
Y2547497D02*
D03*
X2402500D02*
D03*
X2352500D02*
D03*
X2302500D02*
D03*
X2252500D02*
D03*
X1562500Y2994997D02*
D03*
X1612500D02*
D03*
X1662500D02*
D03*
X1712500D02*
D03*
X1762500D02*
D03*
Y2554997D02*
D03*
X1712500D02*
D03*
X1662500D02*
D03*
X1612500D02*
D03*
X1562500D02*
D03*
D17*
X1240000Y1279997D02*
D03*
Y1329997D02*
D03*
Y1379997D02*
D03*
X1290000Y1279997D02*
D03*
Y1379997D02*
D03*
X1340000Y1279997D02*
D03*
Y1329997D02*
D03*
Y1379997D02*
D03*
D41*
X2707500Y3374997D02*
D03*
Y3324997D02*
D03*
Y3274997D02*
D03*
Y3224997D02*
D03*
Y3174997D02*
D03*
Y3124997D02*
D03*
Y3074997D02*
D03*
Y3024997D02*
D03*
Y2974997D02*
D03*
Y2924997D02*
D03*
Y2874997D02*
D03*
Y2824997D02*
D03*
Y1324997D02*
D03*
Y1374997D02*
D03*
Y1424997D02*
D03*
Y1474997D02*
D03*
Y1524997D02*
D03*
Y1574997D02*
D03*
Y1624997D02*
D03*
Y1674997D02*
D03*
Y1724997D02*
D03*
Y1774997D02*
D03*
Y1824997D02*
D03*
Y1874997D02*
D03*
D42*
X1215000Y3374997D02*
D03*
Y3324997D02*
D03*
Y3274997D02*
D03*
Y3224997D02*
D03*
Y3174997D02*
D03*
Y3124997D02*
D03*
Y3074997D02*
D03*
Y3024997D02*
D03*
Y2974997D02*
D03*
Y2924997D02*
D03*
Y2874997D02*
D03*
Y2824997D02*
D03*
D43*
X1410000Y1829997D02*
D03*
X1510000D02*
D03*
X1177500Y2197497D02*
D03*
X1277500D02*
D03*
X2830000Y2352497D02*
D03*
X2730000D02*
D03*
X2830000Y2442497D02*
D03*
X2730000D02*
D03*
X3200000Y2249997D02*
D03*
X3300000D02*
D03*
X1620000Y2229997D02*
D03*
X1720000D02*
D03*
X1177500Y2477497D02*
D03*
X1277500D02*
D03*
X2310000Y1319997D02*
D03*
X2210000D02*
D03*
X2830000Y2262497D02*
D03*
X2730000D02*
D03*
X1190000Y1119997D02*
D03*
X1090000D02*
D03*
X2400000Y2249997D02*
D03*
X2300000D02*
D03*
X2400000Y2339997D02*
D03*
X2300000D02*
D03*
X1250000Y1909997D02*
D03*
X1350000D02*
D03*
X1250000Y1999997D02*
D03*
X1350000D02*
D03*
X2110000Y1119997D02*
D03*
X2010000D02*
D03*
X1885000Y3194997D02*
D03*
X1985000D02*
D03*
X1080000Y1399997D02*
D03*
X980000D02*
D03*
D44*
X1510000Y1649997D02*
D03*
Y1749997D02*
D03*
X2430000Y1429997D02*
D03*
Y1329997D02*
D03*
X1810000Y1139997D02*
D03*
Y1239997D02*
D03*
X2550000Y1209997D02*
D03*
Y1109997D02*
D03*
X1125000Y2007497D02*
D03*
Y1907497D02*
D03*
X2050000Y2229997D02*
D03*
Y2329997D02*
D03*
X2030000Y2649997D02*
D03*
Y2549997D02*
D03*
X1940000D02*
D03*
Y2649997D02*
D03*
X2440000Y2109997D02*
D03*
Y2009997D02*
D03*
X1410000Y1649997D02*
D03*
Y1749997D02*
D03*
X1510000Y1239997D02*
D03*
Y1139997D02*
D03*
X1950000Y1229997D02*
D03*
Y1329997D02*
D03*
X1840000Y2269997D02*
D03*
Y2369997D02*
D03*
X2460000Y1209997D02*
D03*
Y1109997D02*
D03*
X2520000Y1329997D02*
D03*
Y1429997D02*
D03*
D45*
X2945000Y2269997D02*
D03*
X3095000D02*
D03*
X1165000Y1679997D02*
D03*
X1315000D02*
D03*
X1715000Y2339997D02*
D03*
X1565000D02*
D03*
D46*
X1065000Y1302497D02*
D03*
X1030000D02*
D03*
X995000D02*
D03*
X1065000Y1217497D02*
D03*
X1030000D02*
D03*
X995000D02*
D03*
X1212500Y2379997D02*
D03*
X1177500D02*
D03*
X1142500D02*
D03*
X1212500Y2294997D02*
D03*
X1177500D02*
D03*
X1142500D02*
D03*
D47*
X3547000Y2316997D02*
D03*
X3613000D02*
D03*
X3547000Y2382997D02*
D03*
X3613000D02*
D03*
D48*
X1617500Y1224997D02*
D03*
Y1189997D02*
D03*
Y1154997D02*
D03*
X1702500Y1224997D02*
D03*
Y1189997D02*
D03*
Y1154997D02*
D03*
D49*
X1970000Y1779997D02*
D03*
D50*
X1695000Y2119997D02*
D03*
X1745000D02*
D03*
X1795000D02*
D03*
X1845000D02*
D03*
X1895000D02*
D03*
X1945000D02*
D03*
X1995000D02*
D03*
X2045000D02*
D03*
X2095000D02*
D03*
X2145000D02*
D03*
X2195000D02*
D03*
X2245000D02*
D03*
Y1439997D02*
D03*
X2195000D02*
D03*
X2145000D02*
D03*
X2095000D02*
D03*
X2045000D02*
D03*
X1995000D02*
D03*
X1945000D02*
D03*
X1895000D02*
D03*
X1845000D02*
D03*
X1795000D02*
D03*
X1745000D02*
D03*
X1695000D02*
D03*
D51*
X2310000Y2054997D02*
D03*
Y2004997D02*
D03*
Y1954997D02*
D03*
Y1904997D02*
D03*
Y1854997D02*
D03*
Y1804997D02*
D03*
Y1754997D02*
D03*
Y1704997D02*
D03*
Y1654997D02*
D03*
Y1604997D02*
D03*
Y1554997D02*
D03*
Y1504997D02*
D03*
X1630000D02*
D03*
Y1554997D02*
D03*
Y1604997D02*
D03*
Y1654997D02*
D03*
Y1704997D02*
D03*
Y1754997D02*
D03*
Y1804997D02*
D03*
Y1854997D02*
D03*
Y1904997D02*
D03*
Y1954997D02*
D03*
Y2004997D02*
D03*
Y2054997D02*
D03*
D52*
X3235000Y2384997D02*
D03*
X3270000D02*
D03*
X3235000Y2349997D02*
D03*
X3270000D02*
D03*
D53*
X2550000Y2014997D02*
D03*
Y2164997D02*
D03*
D54*
X1722500Y3192497D02*
D03*
X1447500D02*
D03*
X2412500Y3194997D02*
D03*
X2137500D02*
D03*
D55*
X4350000Y375000D02*
D03*
X350000Y374997D02*
D03*
D56*
X3509000Y999999D02*
D03*
X3584000Y1000000D02*
D03*
X3359000Y999999D02*
D03*
X3434000D02*
D03*
X3209000D02*
D03*
X3284000Y1000000D02*
D03*
X3059000Y999999D02*
D03*
X3134000D02*
D03*
X2909000D02*
D03*
X2984000D02*
D03*
X2834000D02*
D03*
X1191000Y999997D02*
D03*
X1116000D02*
D03*
X1341000D02*
D03*
X1266000D02*
D03*
X1491000D02*
D03*
X1416000D02*
D03*
X1641000D02*
D03*
X1566000D02*
D03*
X1791000D02*
D03*
X1716000D02*
D03*
X1866000D02*
D03*
D57*
X3207500Y3604997D02*
D03*
Y2594997D02*
D03*
Y1094997D02*
D03*
Y2104997D02*
D03*
D58*
X950000Y3574997D02*
D03*
Y2624997D02*
D03*
D59*
X932486Y2059973D02*
D03*
X932485Y2464972D02*
D03*
D60*
X2190000Y1559997D02*
D03*
X2080000D02*
D03*
X1970000D02*
D03*
X1860000D02*
D03*
X1750000D02*
D03*
X2190000Y1669997D02*
D03*
X2080000D02*
D03*
X1970000D02*
D03*
X1860000D02*
D03*
X1750000D02*
D03*
X2190000Y1779997D02*
D03*
X2080000D02*
D03*
X1970000D02*
D03*
X1860000D02*
D03*
X1750000D02*
D03*
X2190000Y1889997D02*
D03*
X2080000D02*
D03*
X1970000D02*
D03*
X1860000D02*
D03*
X1750000D02*
D03*
X2190000Y1999997D02*
D03*
X2080000D02*
D03*
X1970000D02*
D03*
X1860000D02*
D03*
X1750000D02*
D03*
%TF.MD5,fb12e5ded15b29e158505b297c57c57c*%
M02*
