%TF.GenerationSoftware,Altium Limited,Altium Designer,23.5.1 (21)*%
G04 Layer_Physical_Order=4*
G04 Layer_Color=16711680*
%FSLAX45Y45*%
%MOMM*%
%TF.SameCoordinates,8EFB5E64-3944-4511-97F7-C7C57B94F044*%
%TF.FilePolarity,Positive*%
%TF.FileFunction,Copper,L4,Bot,Signal*%
%TF.Part,CustomerPanel*%
G01*
G75*
%TA.AperFunction,ConnectorPad*%
%ADD10R,0.85000X0.30000*%
%ADD11R,1.05000X0.28000*%
%TA.AperFunction,SMDPad,CuDef*%
%ADD12R,0.60000X0.60000*%
%TA.AperFunction,Conductor*%
%ADD26C,0.12700*%
%ADD27C,0.25400*%
%ADD28C,0.50800*%
%TA.AperFunction,ConnectorPad*%
%ADD29R,8.50000X1.20000*%
%ADD30R,1.95000X1.20000*%
%TA.AperFunction,ComponentPad*%
%ADD31C,0.65000*%
%TA.AperFunction,ViaPad*%
%ADD32C,0.45000*%
%ADD33C,0.50000*%
%TA.AperFunction,SMDPad,CuDef*%
%ADD34R,1.00000X1.60000*%
%TA.AperFunction,NonConductor*%
%ADD35C,0.25400*%
D10*
X2707500Y2824997D02*
D03*
Y2874997D02*
D03*
Y2924997D02*
D03*
Y2974997D02*
D03*
Y3024997D02*
D03*
Y3074997D02*
D03*
Y3124997D02*
D03*
Y3174997D02*
D03*
Y3224997D02*
D03*
Y3274997D02*
D03*
Y3324997D02*
D03*
Y3374997D02*
D03*
Y1874997D02*
D03*
Y1824997D02*
D03*
Y1774997D02*
D03*
Y1724997D02*
D03*
Y1674997D02*
D03*
Y1624997D02*
D03*
Y1574997D02*
D03*
Y1524997D02*
D03*
Y1474997D02*
D03*
Y1424997D02*
D03*
Y1374997D02*
D03*
Y1324997D02*
D03*
D11*
X1215000Y3374997D02*
D03*
Y3324997D02*
D03*
Y3274997D02*
D03*
Y3224997D02*
D03*
Y3174997D02*
D03*
Y3124997D02*
D03*
Y3074997D02*
D03*
Y3024997D02*
D03*
Y2974997D02*
D03*
Y2924997D02*
D03*
Y2874997D02*
D03*
Y2824997D02*
D03*
D12*
X1805000Y3067497D02*
D03*
X1705000D02*
D03*
X1595000Y3124997D02*
D03*
X1495000D02*
D03*
D26*
X1927500Y1189997D02*
X2092500Y1354997D01*
Y1454997D02*
X2137500Y1499997D01*
X2092500Y1354997D02*
Y1454997D01*
X1912500Y1319997D02*
X2025000Y1432497D01*
X1687500Y1319997D02*
X1912500D01*
X2025000Y1432497D02*
Y2106125D01*
X1395000Y1502497D02*
X1500000Y1397497D01*
X1610000D01*
X1687500Y1319997D01*
X1790000Y2181407D02*
Y2189997D01*
Y2181407D02*
X1805000Y2166407D01*
X1790630Y1370627D02*
Y1379368D01*
X1805000Y1393738D02*
Y2166407D01*
X1790630Y1379368D02*
X1805000Y1393738D01*
X2137500Y1499997D02*
Y2119997D01*
X2157500Y2139997D01*
Y2254997D01*
X2902500Y2377497D02*
X3342500D01*
X2327500Y1409997D02*
X2382500Y1354997D01*
X2327500Y1409997D02*
Y2132497D01*
X2400000Y2204997D01*
X1868966Y1189997D02*
X1927500D01*
X2025000Y2106125D02*
X2114984Y2196110D01*
X2405000Y1827097D02*
X2405400Y1827497D01*
X2405000Y1766236D02*
Y1827097D01*
X2560651Y1716846D02*
X2602500Y1674997D01*
X2558399Y1758396D02*
X2560651Y1756145D01*
Y1716846D02*
Y1756145D01*
X2405000Y1766236D02*
X2620363Y1550873D01*
X2628074D01*
X2602500Y1674997D02*
X2707500D01*
X2475000Y1754997D02*
X2612500Y1617497D01*
X2475000Y1754997D02*
Y1812497D01*
X3342500Y2377497D02*
X3515000Y2204997D01*
X1282744Y3174997D02*
X1325244Y3217497D01*
X2652198Y1574997D02*
X2707500D01*
X2628074Y1550873D02*
X2652198Y1574997D01*
X2703750Y1621247D02*
X2707500Y1624997D01*
X2616250Y1621247D02*
X2703750D01*
X2612500Y1617497D02*
X2616250Y1621247D01*
X1876259Y3194997D02*
X1885000D01*
X1853759Y3217497D02*
X1876259Y3194997D01*
X1325244Y3217497D02*
X1853759D01*
X1366240Y3187497D02*
X1827500D01*
X1861550Y3153447D02*
X2530631D01*
X1827500Y3187497D02*
X1861550Y3153447D01*
X1342900Y3172897D02*
X1351640D01*
X1366240Y3187497D01*
X2530631Y3153447D02*
X2548542Y3171358D01*
X2594320D02*
X2596280Y3169397D01*
X2548542Y3171358D02*
X2594320D01*
X2529710Y3188447D02*
X2554171Y3212908D01*
X2008590Y3188447D02*
X2529710D01*
X1985000Y3194997D02*
X1991180Y3188817D01*
X2008220D01*
X2008590Y3188447D01*
X2554171Y3212908D02*
X2613491D01*
X2651401Y3174997D01*
X2707500D01*
X1215000D02*
X1282744D01*
D27*
X1825043Y2859997D02*
X2427500D01*
X2456445Y2888942D02*
Y2911195D01*
X2427500Y2859997D02*
X2456445Y2888942D01*
X1402500Y1349997D02*
X1404808Y1352306D01*
X2674435Y1875682D02*
X2706815D01*
X2682804Y1887497D02*
X2686249D01*
X2645304Y1924997D02*
X2682804Y1887497D01*
X2640000Y1924997D02*
X2645304D01*
X2650228Y1472697D02*
X2705200D01*
X2707500Y1474997D01*
X2692300Y1324997D02*
X2707500D01*
X2645304Y1467773D02*
X2650228Y1472697D01*
X2640000Y1467773D02*
X2645304D01*
X2691615Y1324312D02*
X2692300Y1324997D01*
X2642500Y1274997D02*
X2646250Y1278748D01*
X2642055Y1324312D02*
X2691615D01*
X2646250Y1278748D02*
Y1291248D01*
X2677700Y1322697D01*
X2641370Y1323627D02*
X2642055Y1324312D01*
X2615000Y1727497D02*
X2617500Y1724997D01*
X2707500D01*
X1249400Y3376297D02*
Y3426297D01*
X1247500Y2774997D02*
Y2823697D01*
X2690000Y3377297D02*
Y3416546D01*
Y2783448D02*
Y2822697D01*
X2686249Y1887497D02*
Y1920296D01*
X2690000Y1283448D02*
Y1322697D01*
X1770189Y2914851D02*
X1825043Y2859997D01*
X2456445Y2911195D02*
X2460195Y2914946D01*
X945000Y1847497D02*
Y1979997D01*
Y1847497D02*
X1115000Y1677497D01*
X1843421Y3124997D02*
X1848421Y3119997D01*
X2562500D01*
X1595000Y3124997D02*
X1843421D01*
X1610000Y2999997D02*
X1841851D01*
X1868744Y3026890D01*
X1585000Y3024997D02*
X1610000Y2999997D01*
X1215000Y3024997D02*
X1585000D01*
X1437500Y3074997D02*
X1444800Y3067697D01*
X1687700D01*
X2512300D02*
X2562079D01*
X1805000Y3084997D02*
X1822300Y3067697D01*
X2512300D01*
X2512500Y3067497D01*
X2562500Y3119997D02*
X2564000Y3121497D01*
X1687700Y3067697D02*
X1705000Y3084997D01*
X1215000Y3074997D02*
X1437500D01*
X1490000Y3124997D02*
X1495000Y3119997D01*
X1215000Y3124997D02*
X1490000D01*
X2532464Y3244658D02*
X2626642D01*
X2452500Y3312497D02*
X2520339Y3244658D01*
X2402500Y3312497D02*
X2452500D01*
X2512500Y3229997D02*
X2517804D01*
X2532464Y3244658D01*
X2520339D02*
X2532464D01*
X2450000Y3387497D02*
X2552500Y3284997D01*
X1253500Y3276297D02*
X1254800Y3274997D01*
X2552500Y3284997D02*
X2640184D01*
X1445000Y3387497D02*
X2450000D01*
X2637500Y2962497D02*
X2642804D01*
X2587500D02*
X2637500D01*
X2614199Y2913097D02*
X2615699Y2914597D01*
X2657341D02*
X2665441Y2922697D01*
X2653004Y2972697D02*
X2705200D01*
X2578100Y2913097D02*
X2614199D01*
X2642804Y2962497D02*
X2653004Y2972697D01*
X2705200D02*
X2707500Y2974997D01*
X2665441Y2922697D02*
X2705200D01*
X2615699Y2914597D02*
X2657341D01*
X1887500Y2975397D02*
X1887700Y2975197D01*
X2514800D01*
X2515000Y2974997D01*
X1332500Y3274997D02*
X1445000Y3387497D01*
X1320000Y3324997D02*
X1430000Y3434997D01*
X2475000D02*
X2585000Y3324997D01*
X1430000Y3434997D02*
X2475000D01*
X1332500Y2874997D02*
X1450000Y2757497D01*
X2490000D02*
X2607500Y2874997D01*
X1450000Y2757497D02*
X2490000D01*
X1254800Y3274997D02*
X1332500D01*
X1215000D02*
X1254800D01*
X2647884Y3277297D02*
X2680000D01*
X2640184Y3284997D02*
X2647884Y3277297D01*
X1215000Y3324997D02*
X1320000D01*
X2585000D02*
X2707500D01*
X2705200Y2922697D02*
X2707500Y2924997D01*
X2470000Y2804997D02*
X2578100Y2913097D01*
X1465000Y2804997D02*
X2470000D01*
X1215000Y2924997D02*
X1345000D01*
X1465000Y2804997D01*
X2607500Y2874997D02*
X2707500D01*
X1215000D02*
X1332500D01*
X2626377Y3124997D02*
X2707500D01*
X2564000Y3121497D02*
X2622877D01*
X2626377Y3124997D01*
X2610849Y3071807D02*
X2611939Y3072897D01*
X2566189Y3071807D02*
X2610849D01*
X2507687Y3024997D02*
X2707500D01*
X2505794Y3026890D02*
X2507687Y3024997D01*
X1868744Y3026890D02*
X2505794D01*
X2562079Y3067697D02*
X2566189Y3071807D01*
X2644003Y3227297D02*
X2705200D01*
X2626642Y3244658D02*
X2644003Y3227297D01*
X2705200D02*
X2707500Y3224997D01*
X2707220Y3075277D02*
X2707500Y3074997D01*
X2612219Y3075277D02*
X2707220D01*
X2642055Y1875682D02*
X2674435D01*
X2686249Y1887497D01*
X2706815Y1875682D02*
X2707500Y1874997D01*
X2641370Y1876367D02*
X2642055Y1875682D01*
X2677700Y1322697D02*
X2690000D01*
X2692300Y2824997D02*
X2707500D01*
X2679314Y2824312D02*
X2691614D01*
X2642055D02*
X2679314D01*
X2646250Y2791248D02*
X2679314Y2824312D01*
X2646250Y2778748D02*
Y2791248D01*
X2642500Y2774997D02*
X2646250Y2778748D01*
X2691614Y2824312D02*
X2692300Y2824997D01*
X2690000Y2822697D02*
X2691614Y2824312D01*
X2641370Y2823627D02*
X2642055Y2824312D01*
X2692300Y3374997D02*
X2707500D01*
X2679315Y3375682D02*
X2691615D01*
X2642055D02*
X2679315D01*
X2646250Y3408747D02*
X2679315Y3375682D01*
X2646250Y3408747D02*
Y3421247D01*
X2642500Y3424997D02*
X2646250Y3421247D01*
X2691615Y3375682D02*
X2692300Y3374997D01*
X2690000Y3377297D02*
X2691615Y3375682D01*
X2641370Y3376367D02*
X2642055Y3375682D01*
X1248100Y3374997D02*
X1253500D01*
X1215000D02*
X1248100D01*
X1254800Y3376297D02*
X1296900D01*
X1249400D02*
X1254800D01*
X1295649Y3417147D01*
X1253500Y3374997D02*
X1254800Y3376297D01*
X1295649Y3417147D02*
Y3422547D01*
X1299400Y3426297D01*
X1216300Y3376297D02*
X1249400D01*
X1215000Y3374997D02*
X1216300Y3376297D01*
X1296900D02*
X1299400Y3378797D01*
X1248100Y3374997D02*
X1249400Y3376297D01*
X1254750Y2823747D02*
X1296250D01*
X1247450D02*
X1254750D01*
X1246200Y2824997D02*
X1253500D01*
X1215000D02*
X1246200D01*
X1254750Y2823747D02*
X1293750Y2784748D01*
X1253500Y2824997D02*
X1254750Y2823747D01*
X1293750Y2778747D02*
Y2784748D01*
Y2778747D02*
X1297500Y2774997D01*
X1247450Y2823747D02*
X1247500Y2823697D01*
X1246200Y2824997D02*
X1247450Y2823747D01*
X1216250D02*
X1247450D01*
X1215000Y2824997D02*
X1216250Y2823747D01*
X1296250D02*
X1297500Y2822497D01*
D28*
X1371250Y1318747D02*
X1402500Y1349997D01*
X1232500Y1179997D02*
X1371250Y1318747D01*
X1482500Y1207497D01*
X1697500D01*
X1810000Y1094997D01*
X2460000Y2654997D02*
Y2657497D01*
Y2654997D02*
X2566250Y2548747D01*
X1828750Y2657497D02*
X2460000D01*
X1772500D02*
X1828750D01*
X1520000Y2404997D02*
X1772500Y2657497D01*
X2457304Y2654801D02*
X2460000Y2657497D01*
X2566250Y2548747D02*
Y2548751D01*
Y2548747D02*
X2672500Y2442497D01*
X2773450Y2332746D02*
Y2439046D01*
X2672500Y2442497D02*
X2770000D01*
X2773450Y2439046D01*
X2275000Y1279997D02*
Y2197497D01*
Y1214997D02*
Y1279997D01*
X2277500Y1277497D02*
X2337500D01*
X2275000Y1279997D02*
X2277500Y1277497D01*
X2155000Y1094997D02*
X2275000Y1214997D01*
X2770000Y2442497D02*
X3272500D01*
X2618201Y2177497D02*
X2773450Y2332746D01*
X2607500Y2177497D02*
X2618201D01*
X2275000Y2197497D02*
X2520000Y2442497D01*
X2672500D01*
X1810000Y1094997D02*
X2155000D01*
X1232500Y1119997D02*
Y1179997D01*
X1202500Y1549997D02*
X1402500Y1349997D01*
X1202500Y1549997D02*
Y1677497D01*
X1115000D02*
X1202500D01*
X1520000Y1994997D02*
Y2312497D01*
X1202500Y1677497D02*
X1520000Y1994997D01*
Y2312497D02*
Y2404997D01*
D29*
X3207500Y3604997D02*
D03*
Y2594997D02*
D03*
Y1094997D02*
D03*
Y2104997D02*
D03*
D30*
X950000Y3574997D02*
D03*
Y2624997D02*
D03*
D31*
X932486Y2059973D02*
D03*
X932485Y2464972D02*
D03*
D32*
X1409999Y1829997D02*
D03*
X2502500Y1107497D02*
D03*
X1390000Y1189997D02*
D03*
X1702500Y1099997D02*
D03*
X2460000Y2657497D02*
D03*
X1828750D02*
D03*
X2140000Y1374997D02*
D03*
X2902500Y2377497D02*
D03*
X2377500Y1594997D02*
D03*
Y1534997D02*
D03*
X2377348Y1655068D02*
D03*
X1642500Y2364997D02*
D03*
X1317500Y2477497D02*
D03*
X1507500Y2602497D02*
D03*
X1252500Y2332497D02*
D03*
X1125000Y1454997D02*
D03*
X1212500Y2074997D02*
D03*
X1425000Y2419997D02*
D03*
X2100000Y2397497D02*
D03*
X1832500Y2407497D02*
D03*
X1495000Y1309997D02*
D03*
X1210000Y1854997D02*
D03*
X1545000Y1479997D02*
D03*
X1395000Y1502497D02*
D03*
X1330000Y1584997D02*
D03*
X1868966Y1189997D02*
D03*
X1790630Y1370627D02*
D03*
X1790000Y2189997D02*
D03*
X1883594Y2178592D02*
D03*
X2114984Y2196110D02*
D03*
X2157500Y2254997D02*
D03*
X1885701Y1267912D02*
D03*
X1810000Y1094997D02*
D03*
X2607500Y2177497D02*
D03*
X2490000Y2279997D02*
D03*
X2405400Y1827497D02*
D03*
X2115000Y1194997D02*
D03*
X2680000Y2324997D02*
D03*
X2622500Y2309997D02*
D03*
X2807500Y2104997D02*
D03*
X2640000Y1924997D02*
D03*
X2895110Y2295005D02*
D03*
X2895200Y2244997D02*
D03*
X2992500Y2269997D02*
D03*
X2558399Y1758396D02*
D03*
X2640000Y1467773D02*
D03*
X2628074Y1550873D02*
D03*
X2642500Y1274997D02*
D03*
X2641370Y1323627D02*
D03*
X2615000Y1727497D02*
D03*
X3515000Y2204997D02*
D03*
X2045000Y1379997D02*
D03*
X1888516Y1375739D02*
D03*
X1249400Y3426297D02*
D03*
X1247500Y2774997D02*
D03*
X1275768Y3226782D02*
D03*
X2690000Y3416546D02*
D03*
Y2783448D02*
D03*
X2686249Y1920296D02*
D03*
X2690000Y1283448D02*
D03*
X1000000Y3560397D02*
D03*
X950000D02*
D03*
X900000D02*
D03*
X1000000Y2639597D02*
D03*
X950000D02*
D03*
X900000D02*
D03*
X2382500Y1354997D02*
D03*
X2612500Y1617497D02*
D03*
X2475000Y1812497D02*
D03*
X2400000Y2204997D02*
D03*
X2352500Y2467497D02*
D03*
X2207500Y2542497D02*
D03*
X1995000Y2467497D02*
D03*
X1876250Y2501247D02*
D03*
X1172500Y2557497D02*
D03*
X2402500Y2915490D02*
D03*
X2460195Y2914946D02*
D03*
X3272500Y2442497D02*
D03*
X1232500Y1119997D02*
D03*
X952500Y1179997D02*
D03*
X1175000Y1317497D02*
D03*
X1402500Y1349997D02*
D03*
X3337500Y2282497D02*
D03*
X2162500Y1314997D02*
D03*
X2490000Y2004997D02*
D03*
X1715000Y2277497D02*
D03*
X1317500Y2194997D02*
D03*
X1520000Y2312497D02*
D03*
X2337500Y1277497D02*
D03*
X1115000Y1677497D02*
D03*
X1460000Y1749997D02*
D03*
X1127500Y1862497D02*
D03*
X1125000Y2007497D02*
D03*
X945000Y1979997D02*
D03*
X1885000Y3194997D02*
D03*
X950000Y2592497D02*
D03*
X1000000D02*
D03*
X900000D02*
D03*
X1000000Y3607497D02*
D03*
X900000D02*
D03*
X950000D02*
D03*
X3207500Y1094997D02*
D03*
X3107500D02*
D03*
X3007500D02*
D03*
X2907500D02*
D03*
X2807500D02*
D03*
X3607500D02*
D03*
X3507500D02*
D03*
X3407500D02*
D03*
X3307500D02*
D03*
X3207500Y2104997D02*
D03*
X3107500D02*
D03*
X3007500D02*
D03*
X2907500D02*
D03*
X3607500D02*
D03*
X3507500D02*
D03*
X3407500D02*
D03*
X3307500D02*
D03*
X3207500Y2594997D02*
D03*
X3107500D02*
D03*
X3007500D02*
D03*
X2907500D02*
D03*
X2807500D02*
D03*
X3607500D02*
D03*
X3507500D02*
D03*
X3407500D02*
D03*
X3307500D02*
D03*
Y3604997D02*
D03*
X3407500D02*
D03*
X3507500D02*
D03*
X3607500D02*
D03*
X2807500D02*
D03*
X2907500D02*
D03*
X3007500D02*
D03*
X3107500D02*
D03*
X3207500D02*
D03*
X2562500Y3119997D02*
D03*
X1342900Y3172897D02*
D03*
X1585000Y3299997D02*
D03*
X1550000Y3262497D02*
D03*
X1620000Y3262497D02*
D03*
X2452500Y3312497D02*
D03*
X2402500D02*
D03*
X2512500Y3229997D02*
D03*
X2587500Y2962497D02*
D03*
X2637500D02*
D03*
X2515000Y2974997D02*
D03*
X2596280Y3169397D02*
D03*
X2611939Y3072897D02*
D03*
X2641370Y1876367D02*
D03*
Y2823627D02*
D03*
X2642500Y2774997D02*
D03*
Y3424997D02*
D03*
X2641370Y3376367D02*
D03*
X1299400Y3426297D02*
D03*
Y3378797D02*
D03*
X1297500Y2822497D02*
D03*
Y2774997D02*
D03*
X1887500Y2975397D02*
D03*
X1770189Y2914851D02*
D03*
X1712500Y2915944D02*
D03*
X1985000Y3194997D02*
D03*
X1280000Y2974997D02*
D03*
D33*
X2190000Y1559997D02*
D03*
X2080000D02*
D03*
X1970000D02*
D03*
X1860000D02*
D03*
X1750000D02*
D03*
X2190000Y1669997D02*
D03*
X2080000D02*
D03*
X1970000D02*
D03*
X1860000D02*
D03*
X1750000D02*
D03*
X2190000Y1779997D02*
D03*
X2080000D02*
D03*
X1970000D02*
D03*
X1860000D02*
D03*
X1750000D02*
D03*
X2190000Y1889997D02*
D03*
X2080000D02*
D03*
X1970000D02*
D03*
X1860000D02*
D03*
X1750000D02*
D03*
X2190000Y1999997D02*
D03*
X2080000D02*
D03*
X1970000D02*
D03*
X1860000D02*
D03*
X1750000D02*
D03*
D34*
X942485Y2452472D02*
D03*
Y2072473D02*
D03*
X1082485Y2452472D02*
D03*
X1082486Y2072473D02*
D03*
D35*
X1705000Y3067497D02*
X1805000D01*
X1495000Y3124997D02*
X1595000D01*
%TF.MD5,dec79b11c06b47e73fee4166d9e62c55*%
M02*
