%TF.GenerationSoftware,Altium Limited,Altium Designer,23.5.1 (21)*%
G04 Layer_Color=8421504*
%FSLAX45Y45*%
%MOMM*%
%TF.SameCoordinates,8EFB5E64-3944-4511-97F7-C7C57B94F044*%
%TF.FilePolarity,Positive*%
%TF.FileFunction,Paste,Top*%
%TF.Part,CustomerPanel*%
G01*
G75*
%TA.AperFunction,SMDPad,CuDef*%
G04:AMPARAMS|DCode=16|XSize=1.45mm|YSize=0.3mm|CornerRadius=0.0495mm|HoleSize=0mm|Usage=FLASHONLY|Rotation=90.000|XOffset=0mm|YOffset=0mm|HoleType=Round|Shape=RoundedRectangle|*
%AMROUNDEDRECTD16*
21,1,1.45000,0.20100,0,0,90.0*
21,1,1.35100,0.30000,0,0,90.0*
1,1,0.09900,0.10050,0.67550*
1,1,0.09900,0.10050,-0.67550*
1,1,0.09900,-0.10050,-0.67550*
1,1,0.09900,-0.10050,0.67550*
%
%ADD16ROUNDEDRECTD16*%
%TA.AperFunction,BGAPad,CuDef*%
%ADD17C,0.25000*%
%TA.AperFunction,NonConductor*%
%ADD35C,0.25400*%
%TA.AperFunction,SMDPad,CuDef*%
%ADD62C,5.00000*%
%ADD63R,0.54920X0.54920*%
%ADD64R,0.54920X0.54920*%
%ADD65R,0.64920X0.84920*%
%ADD66R,0.14920X0.29920*%
%ADD67R,0.26920X0.26920*%
%ADD68R,0.29920X0.14920*%
%ADD69R,5.54920X5.54920*%
%ADD70O,0.19920X0.74920*%
%ADD71O,0.74920X0.19920*%
%ADD72C,0.15720*%
%ADD73R,0.84920X0.64920*%
%ADD74R,1.24920X1.74920*%
D16*
X2252500Y2987497D02*
D03*
X2302500D02*
D03*
X2352500D02*
D03*
X2402500D02*
D03*
X2452500D02*
D03*
Y2547497D02*
D03*
X2402500D02*
D03*
X2352500D02*
D03*
X2302500D02*
D03*
X2252500D02*
D03*
X1562500Y2994997D02*
D03*
X1612500D02*
D03*
X1662500D02*
D03*
X1712500D02*
D03*
X1762500D02*
D03*
Y2554997D02*
D03*
X1712500D02*
D03*
X1662500D02*
D03*
X1612500D02*
D03*
X1562500D02*
D03*
D17*
X1240000Y1279997D02*
D03*
Y1329997D02*
D03*
Y1379997D02*
D03*
X1290000Y1279997D02*
D03*
Y1379997D02*
D03*
X1340000Y1279997D02*
D03*
Y1329997D02*
D03*
Y1379997D02*
D03*
D35*
X-1000000Y5300003D02*
G03*
X-1100001Y5200003I0J-100001D01*
G01*
X5800001Y5200004D02*
G03*
X5700000Y5300004I-100001J-1D01*
G01*
Y-3600004D02*
G03*
X5800001Y-3500004I0J100001D01*
G01*
X-1100001Y-3500003D02*
G03*
X-1000000Y-3600003I100001J1D01*
G01*
X-1000000Y5300007D02*
X5700000Y5300003D01*
X5800000Y5200004D02*
X5800001Y-3500004D01*
X-1000000Y-3600007D02*
X5700000Y-3600003D01*
X-1100000Y-3500004D02*
X-1099999Y5200003D01*
D62*
X4350000Y-2625003D02*
D03*
X350000Y-2625003D02*
D03*
D63*
X1410000Y1829997D02*
D03*
X1510000D02*
D03*
X1177500Y2197497D02*
D03*
X1277500D02*
D03*
X2830000Y2352497D02*
D03*
X2730000D02*
D03*
X2830000Y2442497D02*
D03*
X2730000D02*
D03*
X3200000Y2249997D02*
D03*
X3300000D02*
D03*
X1620000Y2229997D02*
D03*
X1720000D02*
D03*
X1177500Y2477497D02*
D03*
X1277500D02*
D03*
X2310000Y1319997D02*
D03*
X2210000D02*
D03*
X2830000Y2262497D02*
D03*
X2730000D02*
D03*
X1190000Y1119997D02*
D03*
X1090000D02*
D03*
X2400000Y2249997D02*
D03*
X2300000D02*
D03*
X2400000Y2339997D02*
D03*
X2300000D02*
D03*
X1250000Y1909997D02*
D03*
X1350000D02*
D03*
X1250000Y1999997D02*
D03*
X1350000D02*
D03*
X2110000Y1119997D02*
D03*
X2010000D02*
D03*
X1885000Y3194997D02*
D03*
X1985000D02*
D03*
X1080000Y1399997D02*
D03*
X980000D02*
D03*
D64*
X1510000Y1649997D02*
D03*
Y1749997D02*
D03*
X2430000Y1429997D02*
D03*
Y1329997D02*
D03*
X1810000Y1139997D02*
D03*
Y1239997D02*
D03*
X2550000Y1209997D02*
D03*
Y1109997D02*
D03*
X1125000Y2007497D02*
D03*
Y1907497D02*
D03*
X2050000Y2229997D02*
D03*
Y2329997D02*
D03*
X2030000Y2649997D02*
D03*
Y2549997D02*
D03*
X1940000D02*
D03*
Y2649997D02*
D03*
X2440000Y2109997D02*
D03*
Y2009997D02*
D03*
X1410000Y1649997D02*
D03*
Y1749997D02*
D03*
X1510000Y1239997D02*
D03*
Y1139997D02*
D03*
X1950000Y1229997D02*
D03*
Y1329997D02*
D03*
X1840000Y2269997D02*
D03*
Y2369997D02*
D03*
X2460000Y1209997D02*
D03*
Y1109997D02*
D03*
X2520000Y1329997D02*
D03*
Y1429997D02*
D03*
D65*
X2945000Y2269997D02*
D03*
X3095000D02*
D03*
X1165000Y1679997D02*
D03*
X1315000D02*
D03*
X1715000Y2339997D02*
D03*
X1565000D02*
D03*
D66*
X1065000Y1302497D02*
D03*
X1030000D02*
D03*
X995000D02*
D03*
X1065000Y1217497D02*
D03*
X1030000D02*
D03*
X995000D02*
D03*
X1212500Y2379997D02*
D03*
X1177500D02*
D03*
X1142500D02*
D03*
X1212500Y2294997D02*
D03*
X1177500D02*
D03*
X1142500D02*
D03*
D67*
X3547000Y2316997D02*
D03*
X3613000D02*
D03*
X3547000Y2382997D02*
D03*
X3613000D02*
D03*
D68*
X1617500Y1224997D02*
D03*
Y1189997D02*
D03*
Y1154997D02*
D03*
X1702500Y1224997D02*
D03*
Y1189997D02*
D03*
Y1154997D02*
D03*
D69*
X1970000Y1779997D02*
D03*
D70*
X1695000Y2119997D02*
D03*
X1745000D02*
D03*
X1795000D02*
D03*
X1845000D02*
D03*
X1895000D02*
D03*
X1945000D02*
D03*
X1995000D02*
D03*
X2045000D02*
D03*
X2095000D02*
D03*
X2145000D02*
D03*
X2195000D02*
D03*
X2245000D02*
D03*
Y1439997D02*
D03*
X2195000D02*
D03*
X2145000D02*
D03*
X2095000D02*
D03*
X2045000D02*
D03*
X1995000D02*
D03*
X1945000D02*
D03*
X1895000D02*
D03*
X1845000D02*
D03*
X1795000D02*
D03*
X1745000D02*
D03*
X1695000D02*
D03*
D71*
X2310000Y2054997D02*
D03*
Y2004997D02*
D03*
Y1954997D02*
D03*
Y1904997D02*
D03*
Y1854997D02*
D03*
Y1804997D02*
D03*
Y1754997D02*
D03*
Y1704997D02*
D03*
Y1654997D02*
D03*
Y1604997D02*
D03*
Y1554997D02*
D03*
Y1504997D02*
D03*
X1630000D02*
D03*
Y1554997D02*
D03*
Y1604997D02*
D03*
Y1654997D02*
D03*
Y1704997D02*
D03*
Y1754997D02*
D03*
Y1804997D02*
D03*
Y1854997D02*
D03*
Y1904997D02*
D03*
Y1954997D02*
D03*
Y2004997D02*
D03*
Y2054997D02*
D03*
D72*
X3235000Y2384997D02*
D03*
X3270000D02*
D03*
X3235000Y2349997D02*
D03*
X3270000D02*
D03*
D73*
X2550000Y2014997D02*
D03*
Y2164997D02*
D03*
D74*
X1722500Y3192497D02*
D03*
X1447500D02*
D03*
X2412500Y3194997D02*
D03*
X2137500D02*
D03*
%TF.MD5,b91daa35a98ccda91fbc141f2e4da27c*%
M02*
