%TF.GenerationSoftware,Altium Limited,Altium Designer,23.5.1 (21)*%
G04 Layer_Color=0*
%FSLAX45Y45*%
%MOMM*%
%TF.SameCoordinates,8EFB5E64-3944-4511-97F7-C7C57B94F044*%
%TF.FilePolarity,Positive*%
%TF.FileFunction,Plated,1,4,PTH,Drill*%
%TF.Part,CustomerPanel*%
G01*
G75*
%TA.AperFunction,ComponentDrill*%
%ADD101C,0.65000*%
%TA.AperFunction,ViaDrill,NotFilled*%
%ADD102C,0.20000*%
D101*
X932486Y2059973D02*
D03*
X932485Y2464972D02*
D03*
D102*
X1409999Y1829997D02*
D03*
X2502500Y1107497D02*
D03*
X1390000Y1189997D02*
D03*
X1702500Y1099997D02*
D03*
X2460000Y2657497D02*
D03*
X1828750D02*
D03*
X2140000Y1374997D02*
D03*
X2902500Y2377497D02*
D03*
X2377500Y1594997D02*
D03*
Y1534997D02*
D03*
X2377348Y1655068D02*
D03*
X1642500Y2364997D02*
D03*
X1317500Y2477497D02*
D03*
X1507500Y2602497D02*
D03*
X1252500Y2332497D02*
D03*
X1125000Y1454997D02*
D03*
X1212500Y2074997D02*
D03*
X1425000Y2419997D02*
D03*
X2100000Y2397497D02*
D03*
X1832500Y2407497D02*
D03*
X1495000Y1309997D02*
D03*
X1210000Y1854997D02*
D03*
X1545000Y1479997D02*
D03*
X1395000Y1502497D02*
D03*
X1330000Y1584997D02*
D03*
X1868966Y1189997D02*
D03*
X1790630Y1370627D02*
D03*
X1790000Y2189997D02*
D03*
X1883594Y2178592D02*
D03*
X2114984Y2196110D02*
D03*
X2157500Y2254997D02*
D03*
X1885701Y1267912D02*
D03*
X1810000Y1094997D02*
D03*
X2607500Y2177497D02*
D03*
X2490000Y2279997D02*
D03*
X2405400Y1827497D02*
D03*
X2115000Y1194997D02*
D03*
X2680000Y2324997D02*
D03*
X2622500Y2309997D02*
D03*
X2807500Y2104997D02*
D03*
X2640000Y1924997D02*
D03*
X2895110Y2295005D02*
D03*
X2895200Y2244997D02*
D03*
X2992500Y2269997D02*
D03*
X2558399Y1758396D02*
D03*
X2640000Y1467773D02*
D03*
X2628074Y1550873D02*
D03*
X2642500Y1274997D02*
D03*
X2641370Y1323627D02*
D03*
X2615000Y1727497D02*
D03*
X3515000Y2204997D02*
D03*
X2045000Y1379997D02*
D03*
X1888516Y1375739D02*
D03*
X1249400Y3426297D02*
D03*
X1247500Y2774997D02*
D03*
X1275768Y3226782D02*
D03*
X2690000Y3416546D02*
D03*
Y2783448D02*
D03*
X2686249Y1920296D02*
D03*
X2690000Y1283448D02*
D03*
X1000000Y3560397D02*
D03*
X950000D02*
D03*
X900000D02*
D03*
X1000000Y2639597D02*
D03*
X950000D02*
D03*
X900000D02*
D03*
X2382500Y1354997D02*
D03*
X2612500Y1617497D02*
D03*
X2475000Y1812497D02*
D03*
X2400000Y2204997D02*
D03*
X2352500Y2467497D02*
D03*
X2207500Y2542497D02*
D03*
X1995000Y2467497D02*
D03*
X1876250Y2501247D02*
D03*
X1172500Y2557497D02*
D03*
X2402500Y2915490D02*
D03*
X2460195Y2914946D02*
D03*
X3272500Y2442497D02*
D03*
X1232500Y1119997D02*
D03*
X952500Y1179997D02*
D03*
X1175000Y1317497D02*
D03*
X1402500Y1349997D02*
D03*
X3337500Y2282497D02*
D03*
X2162500Y1314997D02*
D03*
X2490000Y2004997D02*
D03*
X1715000Y2277497D02*
D03*
X1317500Y2194997D02*
D03*
X1520000Y2312497D02*
D03*
X2337500Y1277497D02*
D03*
X1115000Y1677497D02*
D03*
X1460000Y1749997D02*
D03*
X1127500Y1862497D02*
D03*
X1125000Y2007497D02*
D03*
X945000Y1979997D02*
D03*
X1885000Y3194997D02*
D03*
X950000Y2592497D02*
D03*
X1000000D02*
D03*
X900000D02*
D03*
X1000000Y3607497D02*
D03*
X900000D02*
D03*
X950000D02*
D03*
X3207500Y1094997D02*
D03*
X3107500D02*
D03*
X3007500D02*
D03*
X2907500D02*
D03*
X2807500D02*
D03*
X3607500D02*
D03*
X3507500D02*
D03*
X3407500D02*
D03*
X3307500D02*
D03*
X3207500Y2104997D02*
D03*
X3107500D02*
D03*
X3007500D02*
D03*
X2907500D02*
D03*
X3607500D02*
D03*
X3507500D02*
D03*
X3407500D02*
D03*
X3307500D02*
D03*
X3207500Y2594997D02*
D03*
X3107500D02*
D03*
X3007500D02*
D03*
X2907500D02*
D03*
X2807500D02*
D03*
X3607500D02*
D03*
X3507500D02*
D03*
X3407500D02*
D03*
X3307500D02*
D03*
Y3604997D02*
D03*
X3407500D02*
D03*
X3507500D02*
D03*
X3607500D02*
D03*
X2807500D02*
D03*
X2907500D02*
D03*
X3007500D02*
D03*
X3107500D02*
D03*
X3207500D02*
D03*
X2190000Y1559997D02*
D03*
X2080000D02*
D03*
X1970000D02*
D03*
X1860000D02*
D03*
X1750000D02*
D03*
X2190000Y1669997D02*
D03*
X2080000D02*
D03*
X1970000D02*
D03*
X1860000D02*
D03*
X1750000D02*
D03*
X2190000Y1779997D02*
D03*
X2080000D02*
D03*
X1970000D02*
D03*
X1860000D02*
D03*
X1750000D02*
D03*
X2190000Y1889997D02*
D03*
X2080000D02*
D03*
X1970000D02*
D03*
X1860000D02*
D03*
X1750000D02*
D03*
X2190000Y1999997D02*
D03*
X2080000D02*
D03*
X1970000D02*
D03*
X1860000D02*
D03*
X1750000D02*
D03*
X2562500Y3119997D02*
D03*
X1342900Y3172897D02*
D03*
X1585000Y3299997D02*
D03*
X1550000Y3262497D02*
D03*
X1620000Y3262497D02*
D03*
X2452500Y3312497D02*
D03*
X2402500D02*
D03*
X2512500Y3229997D02*
D03*
X2587500Y2962497D02*
D03*
X2637500D02*
D03*
X2515000Y2974997D02*
D03*
X2596280Y3169397D02*
D03*
X2611939Y3072897D02*
D03*
X2641370Y1876367D02*
D03*
Y2823627D02*
D03*
X2642500Y2774997D02*
D03*
Y3424997D02*
D03*
X2641370Y3376367D02*
D03*
X1299400Y3426297D02*
D03*
Y3378797D02*
D03*
X1297500Y2822497D02*
D03*
Y2774997D02*
D03*
X1887500Y2975397D02*
D03*
X1770189Y2914851D02*
D03*
X1712500Y2915944D02*
D03*
X1985000Y3194997D02*
D03*
X1280000Y2974997D02*
D03*
%TF.MD5,018031a39480d7aa50531df54007143f*%
M02*
