%TF.GenerationSoftware,Altium Limited,Altium Designer,23.5.1 (21)*%
G04 Layer_Physical_Order=1*
G04 Layer_Color=255*
%FSLAX45Y45*%
%MOMM*%
%TF.SameCoordinates,8EFB5E64-3944-4511-97F7-C7C57B94F044*%
%TF.FilePolarity,Positive*%
%TF.FileFunction,Copper,L1,Top,Signal*%
%TF.Part,CustomerPanel*%
G01*
G75*
%TA.AperFunction,ConnectorPad*%
%ADD10R,0.85000X0.30000*%
%ADD11R,1.05000X0.28000*%
%TA.AperFunction,SMDPad,CuDef*%
%ADD12R,0.60000X0.60000*%
%ADD13R,0.60000X0.60000*%
%ADD14R,0.70000X0.90000*%
%ADD15R,0.20000X0.35000*%
G04:AMPARAMS|DCode=16|XSize=1.45mm|YSize=0.3mm|CornerRadius=0.0495mm|HoleSize=0mm|Usage=FLASHONLY|Rotation=90.000|XOffset=0mm|YOffset=0mm|HoleType=Round|Shape=RoundedRectangle|*
%AMROUNDEDRECTD16*
21,1,1.45000,0.20100,0,0,90.0*
21,1,1.35100,0.30000,0,0,90.0*
1,1,0.09900,0.10050,0.67550*
1,1,0.09900,0.10050,-0.67550*
1,1,0.09900,-0.10050,-0.67550*
1,1,0.09900,-0.10050,0.67550*
%
%ADD16ROUNDEDRECTD16*%
%TA.AperFunction,BGAPad,CuDef*%
%ADD17C,0.25000*%
%TA.AperFunction,SMDPad,CuDef*%
%ADD18R,0.32000X0.32000*%
%ADD19R,0.35000X0.20000*%
%ADD20R,5.60000X5.60000*%
%ADD21O,0.25000X0.80000*%
%ADD22O,0.80000X0.25000*%
%ADD23C,0.20800*%
%ADD24R,0.90000X0.70000*%
%ADD25R,1.30000X1.80000*%
%TA.AperFunction,Conductor*%
%ADD26C,0.12700*%
%ADD27C,0.25400*%
%ADD28C,0.50800*%
%TA.AperFunction,ConnectorPad*%
%ADD29R,8.50000X1.20000*%
%ADD30R,1.95000X1.20000*%
%TA.AperFunction,ComponentPad*%
%ADD31C,0.65000*%
%TA.AperFunction,ViaPad*%
%ADD32C,0.45000*%
%ADD33C,0.50000*%
D10*
X2707500Y3374997D02*
D03*
Y3324997D02*
D03*
Y3274997D02*
D03*
Y3224997D02*
D03*
Y3174997D02*
D03*
Y3124997D02*
D03*
Y3074997D02*
D03*
Y3024997D02*
D03*
Y2974997D02*
D03*
Y2924997D02*
D03*
Y2874997D02*
D03*
Y2824997D02*
D03*
Y1324997D02*
D03*
Y1374997D02*
D03*
Y1424997D02*
D03*
Y1474997D02*
D03*
Y1524997D02*
D03*
Y1574997D02*
D03*
Y1624997D02*
D03*
Y1674997D02*
D03*
Y1724997D02*
D03*
Y1774997D02*
D03*
Y1824997D02*
D03*
Y1874997D02*
D03*
D11*
X1215000Y3374997D02*
D03*
Y3324997D02*
D03*
Y3274997D02*
D03*
Y3224997D02*
D03*
Y3174997D02*
D03*
Y3124997D02*
D03*
Y3074997D02*
D03*
Y3024997D02*
D03*
Y2974997D02*
D03*
Y2924997D02*
D03*
Y2874997D02*
D03*
Y2824997D02*
D03*
D12*
X1410000Y1829997D02*
D03*
X1510000D02*
D03*
X1177500Y2197497D02*
D03*
X1277500D02*
D03*
X2830000Y2352497D02*
D03*
X2730000D02*
D03*
X2830000Y2442497D02*
D03*
X2730000D02*
D03*
X3200000Y2249997D02*
D03*
X3300000D02*
D03*
X1620000Y2229997D02*
D03*
X1720000D02*
D03*
X1177500Y2477497D02*
D03*
X1277500D02*
D03*
X2310000Y1319997D02*
D03*
X2210000D02*
D03*
X2830000Y2262497D02*
D03*
X2730000D02*
D03*
X1190000Y1119997D02*
D03*
X1090000D02*
D03*
X2400000Y2249997D02*
D03*
X2300000D02*
D03*
X2400000Y2339997D02*
D03*
X2300000D02*
D03*
X1250000Y1909997D02*
D03*
X1350000D02*
D03*
X1250000Y1999997D02*
D03*
X1350000D02*
D03*
X2110000Y1119997D02*
D03*
X2010000D02*
D03*
X1885000Y3194997D02*
D03*
X1985000D02*
D03*
X1080000Y1399997D02*
D03*
X980000D02*
D03*
D13*
X1510000Y1649997D02*
D03*
Y1749997D02*
D03*
X2430000Y1429997D02*
D03*
Y1329997D02*
D03*
X1810000Y1139997D02*
D03*
Y1239997D02*
D03*
X2550000Y1209997D02*
D03*
Y1109997D02*
D03*
X1125000Y2007497D02*
D03*
Y1907497D02*
D03*
X2050000Y2229997D02*
D03*
Y2329997D02*
D03*
X2030000Y2649997D02*
D03*
Y2549997D02*
D03*
X1940000D02*
D03*
Y2649997D02*
D03*
X2440000Y2109997D02*
D03*
Y2009997D02*
D03*
X1410000Y1649997D02*
D03*
Y1749997D02*
D03*
X1510000Y1239997D02*
D03*
Y1139997D02*
D03*
X1950000Y1229997D02*
D03*
Y1329997D02*
D03*
X1840000Y2269997D02*
D03*
Y2369997D02*
D03*
X2460000Y1209997D02*
D03*
Y1109997D02*
D03*
X2520000Y1329997D02*
D03*
Y1429997D02*
D03*
D14*
X2945000Y2269997D02*
D03*
X3095000D02*
D03*
X1165000Y1679997D02*
D03*
X1315000D02*
D03*
X1715000Y2339997D02*
D03*
X1565000D02*
D03*
D15*
X1065000Y1302497D02*
D03*
X1030000D02*
D03*
X995000D02*
D03*
X1065000Y1217497D02*
D03*
X1030000D02*
D03*
X995000D02*
D03*
X1212500Y2379997D02*
D03*
X1177500D02*
D03*
X1142500D02*
D03*
X1212500Y2294997D02*
D03*
X1177500D02*
D03*
X1142500D02*
D03*
D16*
X2252500Y2987497D02*
D03*
X2302500D02*
D03*
X2352500D02*
D03*
X2402500D02*
D03*
X2452500D02*
D03*
Y2547497D02*
D03*
X2402500D02*
D03*
X2352500D02*
D03*
X2302500D02*
D03*
X2252500D02*
D03*
X1562500Y2994997D02*
D03*
X1612500D02*
D03*
X1662500D02*
D03*
X1712500D02*
D03*
X1762500D02*
D03*
Y2554997D02*
D03*
X1712500D02*
D03*
X1662500D02*
D03*
X1612500D02*
D03*
X1562500D02*
D03*
D17*
X1240000Y1279997D02*
D03*
Y1329997D02*
D03*
Y1379997D02*
D03*
X1290000Y1279997D02*
D03*
Y1379997D02*
D03*
X1340000Y1279997D02*
D03*
Y1329997D02*
D03*
Y1379997D02*
D03*
D18*
X3547000Y2316997D02*
D03*
X3613000D02*
D03*
X3547000Y2382997D02*
D03*
X3613000D02*
D03*
D19*
X1617500Y1224997D02*
D03*
Y1189997D02*
D03*
Y1154997D02*
D03*
X1702500Y1224997D02*
D03*
Y1189997D02*
D03*
Y1154997D02*
D03*
D20*
X1970000Y1779997D02*
D03*
D21*
X1695000Y2119997D02*
D03*
X1745000D02*
D03*
X1795000D02*
D03*
X1845000D02*
D03*
X1895000D02*
D03*
X1945000D02*
D03*
X1995000D02*
D03*
X2045000D02*
D03*
X2095000D02*
D03*
X2145000D02*
D03*
X2195000D02*
D03*
X2245000D02*
D03*
Y1439997D02*
D03*
X2195000D02*
D03*
X2145000D02*
D03*
X2095000D02*
D03*
X2045000D02*
D03*
X1995000D02*
D03*
X1945000D02*
D03*
X1895000D02*
D03*
X1845000D02*
D03*
X1795000D02*
D03*
X1745000D02*
D03*
X1695000D02*
D03*
D22*
X2310000Y2054997D02*
D03*
Y2004997D02*
D03*
Y1954997D02*
D03*
Y1904997D02*
D03*
Y1854997D02*
D03*
Y1804997D02*
D03*
Y1754997D02*
D03*
Y1704997D02*
D03*
Y1654997D02*
D03*
Y1604997D02*
D03*
Y1554997D02*
D03*
Y1504997D02*
D03*
X1630000D02*
D03*
Y1554997D02*
D03*
Y1604997D02*
D03*
Y1654997D02*
D03*
Y1704997D02*
D03*
Y1754997D02*
D03*
Y1804997D02*
D03*
Y1854997D02*
D03*
Y1904997D02*
D03*
Y1954997D02*
D03*
Y2004997D02*
D03*
Y2054997D02*
D03*
D23*
X3235000Y2384997D02*
D03*
X3270000D02*
D03*
X3235000Y2349997D02*
D03*
X3270000D02*
D03*
D24*
X2550000Y2014997D02*
D03*
Y2164997D02*
D03*
D25*
X1722500Y3192497D02*
D03*
X1447500D02*
D03*
X2412500Y3194997D02*
D03*
X2137500D02*
D03*
D26*
X1505000Y1809997D02*
X1547500D01*
X2550000Y1209997D02*
X2594450Y1254447D01*
Y1491947D01*
X2480000Y1267497D02*
X2552500D01*
X2569050Y1284047D02*
Y1545947D01*
X2552500Y1267497D02*
X2569050Y1284047D01*
X2460000Y1209997D02*
X2465000Y1214997D01*
Y1252497D01*
X2480000Y1267497D01*
X2477500Y1109997D02*
X2567500D01*
X1225000Y1189997D02*
X1390000D01*
X1471550Y1053447D02*
X1943450D01*
X1442500Y1082497D02*
X1471550Y1053447D01*
X1702500Y1099997D02*
Y1154997D01*
X1943450Y1053447D02*
X2010000Y1119997D01*
X1115000Y2407497D02*
Y2524997D01*
Y2407497D02*
X1131350Y2391147D01*
X1115000Y2524997D02*
X1143320Y2553317D01*
X1131350Y2391147D02*
X1138850D01*
X1143320Y2553317D02*
X1168319D01*
X1172500Y2557497D01*
X1067500Y1844997D02*
Y2287497D01*
X1120000Y2339997D02*
X1162500D01*
X1067500Y2287497D02*
X1120000Y2339997D01*
X1067500Y1844997D02*
X1107500Y1804997D01*
X1175000D01*
X1995000Y2467497D02*
X2162500D01*
X2205000Y2424997D02*
X2422500D01*
X2162500Y2467497D02*
X2205000Y2424997D01*
X2100000Y2397497D02*
X2102500Y2394997D01*
X2382500D01*
X1828750Y2657497D02*
X2022500D01*
X1635000D02*
X1828750D01*
X2140000Y1374997D02*
X2142646Y1377644D01*
Y1437644D01*
X2145000Y1439997D01*
X2877500Y2352497D02*
X2902500Y2377497D01*
X3487500Y2442497D02*
X3547500Y2382497D01*
X2312353Y1602644D02*
X2361113D01*
X2368760Y1594997D01*
X2377500D01*
X2310035Y1655033D02*
X2377312D01*
X2377348Y1655068D01*
X2354648Y1541177D02*
X2371320D01*
X2377500Y1534997D01*
X2392500Y1704997D02*
X2430000Y1667497D01*
X1642500Y2364997D02*
Y2373737D01*
X1662500Y2393737D01*
X1565000Y2339997D02*
Y2349997D01*
X1562500Y2554997D02*
Y2593847D01*
X1507500Y2602497D02*
X1553850D01*
X1562500Y2593847D01*
X1212500Y2294997D02*
Y2302497D01*
X1246320Y2326317D02*
X1252500Y2332497D01*
X1236319Y2326317D02*
X1246320D01*
X1212500Y2302497D02*
X1236319Y2326317D01*
X1080000Y1399997D02*
X1118819Y1438817D01*
Y1448817D01*
X1125000Y1454997D01*
X1030000Y1436938D02*
X1095559Y1502497D01*
X1395000D01*
X1030000Y1302497D02*
Y1436938D01*
X1208449Y2079047D02*
X1212500Y2074997D01*
X1170950Y2079047D02*
X1208449D01*
X1120000Y2129997D02*
X1170950Y2079047D01*
X1226350Y2023647D02*
X1250000Y1999997D01*
X1226350Y2023647D02*
Y2052406D01*
X1212500Y2066256D02*
X1226350Y2052406D01*
X1212500Y2066256D02*
Y2074997D01*
X1385000Y2379997D02*
X1425000Y2419997D01*
X1212500Y2379997D02*
X1385000D01*
X2050000Y2329997D02*
X2093820Y2373817D01*
Y2391317D01*
X2100000Y2397497D01*
X1995000Y2119997D02*
Y2467497D01*
Y2514997D01*
X1725000Y2452497D02*
X1945000D01*
X1945000D01*
X1712500Y2464997D02*
X1725000Y2452497D01*
X1662500Y2393737D02*
Y2554997D01*
X1495000Y1254997D02*
X1510000Y1239997D01*
X1495000Y1254997D02*
Y1309997D01*
X1340000Y1279997D02*
X1406240D01*
X1566239Y1439997D02*
X1695000D01*
X1406240Y1279997D02*
X1566239Y1439997D01*
X1216180Y1876177D02*
X1250000Y1909997D01*
X1216180Y1861177D02*
Y1876177D01*
X1210000Y1854997D02*
X1216180Y1861177D01*
X1532500Y1554997D02*
X1630000D01*
X1545000Y1479997D02*
X1545950D01*
X1570950Y1504997D01*
X1630000D01*
X1357500Y1379997D02*
X1532500Y1554997D01*
X1340000Y1379997D02*
X1357500D01*
X1298359Y1612117D02*
X1325479Y1584997D01*
X1330000D01*
X1227500Y1624635D02*
X1309638Y1542497D01*
X1364939D02*
X1402839Y1580397D01*
X1309638Y1542497D02*
X1364939D01*
X1275939Y1612117D02*
X1298359D01*
X1702500Y1189997D02*
X1868966D01*
X1792815Y1372812D02*
Y1437812D01*
X1790630Y1370627D02*
X1792815Y1372812D01*
Y1437812D02*
X1795000Y1439997D01*
X1792646Y2122350D02*
Y2187350D01*
X1842044Y2153781D02*
Y2267953D01*
Y2153781D02*
X1845000Y2150826D01*
X1790000Y2189997D02*
X1792646Y2187350D01*
X1883594Y2169851D02*
X1892646Y2160799D01*
X1883594Y2169851D02*
Y2178592D01*
X1892646Y2122350D02*
Y2160799D01*
X1840000Y2269997D02*
X1842044Y2267953D01*
X1892646Y2122350D02*
X1895000Y2119997D01*
X1845000D02*
Y2150826D01*
X2145000Y2119997D02*
X2147353Y2122350D01*
Y2169718D01*
X2157500Y2179865D01*
Y2254997D01*
X2095000Y2119997D02*
Y2173749D01*
X2114984Y2193734D01*
Y2196110D01*
X2195000Y2234997D02*
X2300000Y2339997D01*
X2195000Y2119997D02*
Y2234997D01*
X1255000Y1772497D02*
X1299050Y1816547D01*
X1297500Y2069997D02*
Y2077497D01*
X1175000Y1804997D02*
X1227500Y1752497D01*
X1297500Y2069997D02*
X1299050Y2068447D01*
Y1816547D02*
Y2068447D01*
X1177500Y2197497D02*
X1297500Y2077497D01*
X1227500Y1624635D02*
Y1752497D01*
X1255000Y1633056D02*
Y1772497D01*
Y1633056D02*
X1275939Y1612117D01*
X1402839Y1580397D02*
X1527341D01*
X1551941Y1604997D01*
X1602500Y1754997D02*
X1630000D01*
X1547500Y1809997D02*
X1602500Y1754997D01*
X1350000Y1909997D02*
X1352500Y1912497D01*
X1435000D01*
X1442500Y1904997D02*
X1630000D01*
X1435000Y1912497D02*
X1442500Y1904997D01*
X1350000Y1999997D02*
X1457500D01*
X1502500Y1954997D01*
X1630000D01*
X1175000Y2377497D02*
X1177500Y2379997D01*
X1175000Y2352497D02*
Y2377497D01*
X1162500Y2339997D02*
X1175000Y2352497D01*
X1551941Y1604997D02*
X1630000D01*
X1157500Y1257497D02*
X1225000Y1189997D01*
X1885701Y1267912D02*
X1894442D01*
X1905577Y1279047D01*
X1985991D01*
X1042500Y1257497D02*
X1157500D01*
X1033650Y1248647D02*
X1042500Y1257497D01*
X1030000Y1217497D02*
X1033650Y1221147D01*
Y1248647D01*
X1985991Y1279047D02*
X1989720Y1282777D01*
X1990279D01*
X2002500Y1294997D01*
Y1373447D01*
X1995000Y1380947D02*
Y1439997D01*
Y1380947D02*
X2002500Y1373447D01*
X1442500Y1239997D02*
X1510000D01*
X1247500D02*
X1442500D01*
Y1082497D02*
Y1239997D01*
X1240000Y1247497D02*
X1247500Y1239997D01*
X1240000Y1247497D02*
Y1279997D01*
X2516240Y2262497D02*
X2730000D01*
X2498740Y2279997D02*
X2516240Y2262497D01*
X2490000Y2279997D02*
X2498740D01*
X2377500Y1854997D02*
X2405000Y1827497D01*
X2405400D01*
X2310000Y1654997D02*
X2310035Y1655033D01*
X2110000Y1119997D02*
X2115000Y1124997D01*
Y1194997D01*
X2628680Y2341177D02*
X2730000Y2442497D01*
X2628680Y2316177D02*
Y2341177D01*
X2622500Y2309997D02*
X2628680Y2316177D01*
X2706350Y2328847D02*
X2730000Y2352497D01*
X2683850Y2328847D02*
X2706350D01*
X2680000Y2324997D02*
X2683850Y2328847D01*
X2867500Y2199997D02*
X3451239D01*
X2830000Y2262497D02*
X2846610Y2245886D01*
Y2220887D02*
Y2245886D01*
Y2220887D02*
X2867500Y2199997D01*
X2558399Y1758396D02*
X2560000Y1756796D01*
X2425000Y1954997D02*
X2516849Y1863148D01*
Y1659198D02*
Y1863148D01*
X2518450Y1431547D02*
Y1657597D01*
X2516849Y1659198D02*
X2518450Y1657597D01*
X2560000Y1677221D02*
Y1756796D01*
X2594450Y1491947D02*
X2611826Y1509323D01*
X2545550Y1569447D02*
X2569050Y1545947D01*
X2671350Y1583647D02*
X2680000Y1574997D01*
X2612500Y1617497D02*
X2620210D01*
X2654060Y1583647D02*
X2671350D01*
X2680000Y1574997D02*
X2707500D01*
X2645285Y1509323D02*
X2652309Y1516347D01*
X2620210Y1617497D02*
X2654060Y1583647D01*
X2611826Y1509323D02*
X2645285D01*
X2570950Y1599257D02*
X2619334Y1550873D01*
X2652309Y1516347D02*
X2698850D01*
X2619334Y1550873D02*
X2628074D01*
X2545550Y1569447D02*
Y1662771D01*
X2560000Y1677221D01*
X2518450Y1431547D02*
X2520000Y1429997D01*
X2830000Y2352497D02*
X2877500D01*
X3451239Y2199997D02*
X3540849Y2289607D01*
Y2310847D02*
X3547000Y2316997D01*
X3540849Y2289607D02*
Y2310847D01*
X3613000Y2265497D02*
Y2316997D01*
X3556550Y2209047D02*
X3613000Y2265497D01*
X3515000Y2204997D02*
X3519050Y2209047D01*
X3556550D01*
X3511950Y2484047D02*
X3613000Y2382997D01*
X3169050Y2484047D02*
X3511950D01*
X3272500Y2442497D02*
X3487500D01*
X3127500D02*
X3169050Y2484047D01*
X2830000Y2442497D02*
X3127500D01*
X2310000Y1604997D02*
X2312353Y1602644D01*
X2310000Y1554997D02*
X2340828D01*
X2354648Y1541177D01*
X2045000Y1379997D02*
Y1439997D01*
X1892646Y1437644D02*
X1895000Y1439997D01*
X1892646Y1379869D02*
Y1437644D01*
X1888516Y1375739D02*
X1892646Y1379869D01*
X1845000Y1342497D02*
Y1439997D01*
X1810000Y1307497D02*
X1845000Y1342497D01*
X2310000Y1904997D02*
X2405000D01*
X2469570Y1817927D02*
X2475000Y1812497D01*
X2469570Y1817927D02*
Y1840427D01*
X2405000Y1904997D02*
X2469570Y1840427D01*
X2310000Y1954997D02*
X2425000D01*
X2430000Y1329997D02*
X2520000D01*
X2570950Y1599257D02*
Y1634707D01*
X2595289Y1659047D01*
X2629710D02*
X2655110Y1633647D01*
X2595289Y1659047D02*
X2629710D01*
X2698850Y1633647D02*
X2707500Y1624997D01*
X2655110Y1633647D02*
X2698850D01*
Y1516347D02*
X2707500Y1524997D01*
X2310000Y1854997D02*
X2377500D01*
X2310000Y1704997D02*
X2392500D01*
X2430000Y1429997D02*
Y1667497D01*
X1950000Y1179997D02*
Y1229997D01*
Y1179997D02*
X2010000Y1119997D01*
X2382500Y2394997D02*
X2400000Y2377497D01*
Y2339997D02*
Y2377497D01*
Y2249997D02*
Y2339997D01*
X2422500Y2424997D02*
X2452500Y2454997D01*
X2207500Y2542497D02*
X2297500D01*
X2302500Y2547497D01*
X1945000Y2452497D02*
Y2544997D01*
Y2119997D02*
Y2452497D01*
X1762500Y2554997D02*
X1822500D01*
X1876250Y2501247D01*
X2452500Y2454997D02*
Y2547497D01*
X2402500D02*
X2402500Y2547497D01*
Y2637497D01*
X2207500Y2652497D02*
X2387500D01*
X2402500Y2637497D01*
X2155000Y2599997D02*
X2207500Y2652497D01*
X1940000Y2549997D02*
X1990000Y2599997D01*
X2155000D01*
X1712500Y2464997D02*
Y2554997D01*
X2022500Y2657497D02*
X2030000Y2649997D01*
X1612500Y2554997D02*
X1621150Y2563647D01*
Y2643647D01*
X1635000Y2657497D01*
X2674229Y3019226D02*
X2701729D01*
X1250000Y1909997D02*
Y1999997D01*
X1120000Y2129997D02*
Y2264997D01*
X1142500Y2287497D02*
Y2294997D01*
X1120000Y2264997D02*
X1142500Y2287497D01*
X1177500Y2197497D02*
Y2294997D01*
X1142500Y2379997D02*
Y2387497D01*
X1138850Y2391147D02*
X1142500Y2387497D01*
X1177500Y2379997D02*
Y2477497D01*
X3270000Y2384997D02*
Y2439997D01*
X3272500Y2442497D01*
X3235000Y2284997D02*
Y2349997D01*
X3200000Y2249997D02*
X3235000Y2284997D01*
Y2349997D02*
Y2384997D01*
X3270000Y2279997D02*
Y2349997D01*
Y2279997D02*
X3300000Y2249997D01*
X1065000Y1144997D02*
Y1217497D01*
Y1144997D02*
X1090000Y1119997D01*
X995000Y1210986D02*
Y1217497D01*
X991350Y1207336D02*
X995000Y1210986D01*
X979840Y1207336D02*
X991350D01*
X952500Y1179997D02*
X979840Y1207336D01*
X952500Y1179997D02*
X952500D01*
X995000Y1302497D02*
Y1384997D01*
X980000Y1399997D02*
X995000Y1384997D01*
X1065000Y1302497D02*
Y1384997D01*
X1080000Y1399997D01*
X1100000Y1379997D02*
X1240000D01*
X1080000Y1399997D02*
X1100000Y1379997D01*
X1196240Y1329997D02*
X1240000D01*
X1183740Y1317497D02*
X1196240Y1329997D01*
X1175000Y1317497D02*
X1183740D01*
X1340000Y1329997D02*
X1373760D01*
X1393759Y1349997D01*
X1402500D01*
X1290000Y1379997D02*
X1340000D01*
X1290000Y1279997D02*
X1340000D01*
X1657500Y1262497D02*
X1702500Y1307497D01*
X1810000D01*
X1657500Y1204997D02*
Y1262497D01*
X1617500Y1189997D02*
X1621150Y1193647D01*
X1646150D01*
X1657500Y1204997D01*
X1524999Y1154997D02*
X1617500D01*
X1510000Y1139997D02*
X1524999Y1154997D01*
X1525000Y1224997D02*
X1617500D01*
X1510000Y1239997D02*
X1525000Y1224997D01*
X1702500D02*
X1795000D01*
X1810000Y1239997D01*
X1940000Y2549997D02*
X1945000Y2544997D01*
X1995000Y2514997D02*
X2030000Y2549997D01*
X2245000Y2119997D02*
Y2194997D01*
X2300000Y2249997D01*
X2045000Y2119997D02*
Y2224997D01*
X2050000Y2229997D01*
X1792646Y2122350D02*
X1795000Y2119997D01*
X1945000Y1334997D02*
Y1439997D01*
Y1334997D02*
X1950000Y1329997D01*
X2556319Y3113817D02*
X2562500Y3119997D01*
Y3059997D02*
Y3119997D01*
X2325000Y3194997D02*
X2412500D01*
X2515000Y2974997D02*
X2545150Y3005147D01*
X2638871D01*
X2600061Y3173177D02*
X2705680D01*
X2596280Y3169397D02*
X2600061Y3173177D01*
X2638871Y3005147D02*
X2650071Y3016347D01*
X2671350D01*
X2674229Y3019226D01*
X2664150Y3066347D02*
X2698850D01*
X2629150Y3031347D02*
X2664150Y3066347D01*
X2611939Y3072897D02*
Y3075557D01*
X2654919Y3118537D01*
X2562500Y3059997D02*
X2591150Y3031347D01*
X2629150D01*
X2705680Y3173177D02*
X2707500Y3174997D01*
X2654919Y3118537D02*
X2701040D01*
X2707500Y3124997D01*
X2698850Y3066347D02*
X2707500Y3074997D01*
X1447500Y3192497D02*
X1535000D01*
X1562500Y2994997D02*
Y3164997D01*
X1535000Y3192497D02*
X1562500Y3164997D01*
X1635000Y3192497D02*
X1722500D01*
X1612500Y2994997D02*
Y3169997D01*
X1635000Y3192497D01*
X2302500Y2987497D02*
Y3172497D01*
X2325000Y3194997D01*
X2137500D02*
X2225000D01*
X2252500Y2987497D02*
Y3167497D01*
X2225000Y3194997D02*
X2252500Y3167497D01*
X2137500Y3194997D02*
X2165000Y3167497D01*
Y2932497D02*
Y3167497D01*
Y2932497D02*
X2212500Y2884997D01*
X1447500Y3192497D02*
X1467500Y3172497D01*
Y2957497D02*
Y3172497D01*
Y2957497D02*
X1532500Y2892497D01*
X2337500Y2884997D02*
X2352500Y2899997D01*
Y2987497D01*
X2212500Y2884997D02*
X2337500D01*
X1532500Y2892497D02*
X1647500D01*
X1662500Y2907497D02*
Y2994997D01*
X1647500Y2892497D02*
X1662500Y2907497D01*
D27*
X2195200Y1334797D02*
X2210000Y1319997D01*
X2195200Y1334797D02*
Y1439797D01*
X2302500Y1312497D02*
X2337500Y1277497D01*
X2308950Y1321047D02*
X2311050D01*
X1715000Y2214997D02*
X1742100Y2187897D01*
X1715000Y2214997D02*
Y2339997D01*
X1745000Y2004997D02*
Y2119997D01*
X1744800Y2120197D02*
X1745000Y2119997D01*
X1742100Y2170156D02*
X1744800Y2167456D01*
Y2120197D02*
Y2167456D01*
X1742100Y2170156D02*
Y2187897D01*
X2690000Y1877297D02*
Y1916546D01*
X2642500Y1924997D02*
X2677700Y1889797D01*
X2640000Y1924997D02*
X2642500D01*
X2705200Y1472697D02*
X2707500Y1474997D01*
X2650228Y1472697D02*
X2705200D01*
X2645304Y1467773D02*
X2650228Y1472697D01*
X2640000Y1467773D02*
X2645304D01*
X2642500Y1274997D02*
X2646250Y1278748D01*
X2641370Y1323627D02*
X2642055Y1324312D01*
X2646250Y1278748D02*
Y1291248D01*
X2679315Y1324312D01*
X2642055D02*
X2679315D01*
X2706250Y1726247D02*
X2707500Y1724997D01*
X2616250Y1726247D02*
X2706250D01*
X2615000Y1727497D02*
X2616250Y1726247D01*
X1215000Y3026297D02*
X1306300D01*
X1249400Y3376297D02*
Y3426297D01*
X1246900Y2775597D02*
X1247500Y2774997D01*
X1274876Y3225889D02*
X1275768Y3226782D01*
X1215000Y3226297D02*
X1254392D01*
X2690000Y3377297D02*
Y3416546D01*
X2642055Y2824312D02*
X2677700D01*
X2690000Y2783448D02*
Y2822697D01*
X2642055Y1875682D02*
X2691614D01*
X2686249Y1920296D02*
X2690000Y1916546D01*
Y1283448D02*
Y1322697D01*
X2679315Y1324312D02*
X2691615D01*
X3095000Y2269997D02*
X3180000D01*
X3200000Y2249997D01*
X2440000Y2109997D02*
X2484679Y2154676D01*
X2422700Y2092697D02*
X2440000Y2109997D01*
X1620000Y2229997D02*
Y2284997D01*
X1597300Y2307697D02*
X1620000Y2284997D01*
X1587300Y2307697D02*
X1597300D01*
X1565000Y2329997D02*
X1587300Y2307697D01*
X1565000Y2329997D02*
Y2339997D01*
X1633849Y2161147D02*
X1647699Y2147297D01*
X1620000Y2174997D02*
X1633849Y2161147D01*
X1630000Y2054997D02*
Y2157298D01*
X1633849Y2161147D01*
X1620000Y2174997D02*
Y2229997D01*
X1695000Y2119997D02*
Y2147098D01*
X1694800Y2147297D02*
X1695000Y2147098D01*
X1647699Y2147297D02*
X1694800D01*
X2292700Y1337297D02*
Y1365197D01*
Y1337297D02*
X2308950Y1321047D01*
X2245200Y1412697D02*
X2292700Y1365197D01*
X2195000Y1439997D02*
X2195200Y1439797D01*
X2310200Y2055197D02*
X2367379D01*
X2404879Y2092697D02*
X2422700D01*
X2367379Y2055197D02*
X2404879Y2092697D01*
X2310000Y2054997D02*
X2310200Y2055197D01*
X2539678Y2154676D02*
X2550000Y2164997D01*
X2484679Y2154676D02*
X2539678D01*
X2310200Y2005197D02*
X2540200D01*
X2310000Y2004997D02*
X2310200Y2005197D01*
X2540200D02*
X2550000Y2014997D01*
X2080000Y1889997D02*
X2195000Y2004997D01*
X1970000Y1779997D02*
X2080000Y1889997D01*
X2195000Y2004997D02*
X2310000D01*
X1695963Y1705197D02*
X1770763Y1779997D01*
X1860000Y1889997D02*
X1970000Y1779997D01*
X1750000Y1999997D02*
X1860000Y1889997D01*
X1745000Y2004997D02*
X1750000Y1999997D01*
X1860000Y1779997D02*
X1970000D01*
X1770763D02*
X1860000D01*
X1630000Y1704997D02*
X1630200Y1705197D01*
X1695963D01*
X1510000Y1649997D02*
X1514800Y1654797D01*
X1629800D01*
X1630000Y1654997D01*
X1410000Y1649997D02*
X1510000D01*
X1337300D02*
X1410000D01*
X1315000Y1672297D02*
Y1679997D01*
Y1672297D02*
X1337300Y1649997D01*
X1510000Y1749997D02*
X1554800Y1705197D01*
X1629800D01*
X1630000Y1704997D01*
X1460000Y1749997D02*
X1510000D01*
X1410000D02*
X1460000D01*
X1341849Y3173947D02*
X1342900Y3172897D01*
X1253750Y3174997D02*
X1254800Y3173947D01*
X1341849D01*
X1430000Y3432497D02*
X2477500D01*
X2402500Y3204997D02*
Y3312497D01*
X2455000Y3384997D02*
X2565000Y3274997D01*
X2585000Y3324997D02*
X2624999D01*
X2452500Y3234997D02*
Y3312497D01*
X2477500Y3432497D02*
X2585000Y3324997D01*
X2565000Y3274997D02*
X2707500D01*
X2624999Y3324997D02*
X2625000Y3324997D01*
X1445000Y3384997D02*
X2455000D01*
X2402500Y3204997D02*
X2412500Y3194997D01*
X2447500Y3229997D02*
X2452500Y3234997D01*
X2412500Y3194997D02*
X2447500Y3229997D01*
X2512500D01*
X2637500Y2962497D02*
X2642804D01*
X2587500D02*
X2637500D01*
X2467500Y2804997D02*
X2577100Y2914597D01*
X2657341D01*
X2665441Y2922697D01*
X2653004Y2972697D02*
X2705200D01*
X2642804Y2962497D02*
X2653004Y2972697D01*
X2665441Y2922697D02*
X2705200D01*
X1335000Y3274997D02*
X1445000Y3384997D01*
X1322500Y3324997D02*
X1430000Y3432497D01*
X1330000Y2874997D02*
X1447500Y2757497D01*
X2487500D02*
X2605000Y2874997D01*
X1447500Y2757497D02*
X2487500D01*
X1465000Y2804997D02*
X2467500D01*
X1345000Y2924997D02*
X1465000Y2804997D01*
X1215000Y3274997D02*
X1253538D01*
X1335000D01*
X1215000Y2974997D02*
X1280000D01*
X2705200Y2972697D02*
X2707500Y2974997D01*
X2705200Y2922697D02*
X2707500Y2924997D01*
X2512500Y3229997D02*
X2620339D01*
X2625339Y3224997D02*
X2707500D01*
X1215000Y3174997D02*
X1253750D01*
X2620339Y3229997D02*
X2625339Y3224997D01*
X2691614Y1875682D02*
X2706815D01*
X2690000Y1877297D02*
X2691614Y1875682D01*
X2706815D02*
X2707500Y1874997D01*
X2641370Y1876367D02*
X2642055Y1875682D01*
X2691615Y1324312D02*
X2692300Y1324997D01*
X2690000Y1322697D02*
X2691615Y1324312D01*
X2692300Y1324997D02*
X2707500D01*
X2646250Y2791248D02*
X2677700Y2822697D01*
X2646250Y3408747D02*
X2679315Y3375682D01*
X2691615D01*
X2642055D02*
X2679315D01*
X2646250Y3408747D02*
Y3421247D01*
X2642500Y3424997D02*
X2646250Y3421247D01*
X2690000Y3377297D02*
X2691615Y3375682D01*
X2703585D01*
X2641370Y3376367D02*
X2642055Y3375682D01*
X2677700Y2822697D02*
X2690000D01*
X2646250Y2778748D02*
Y2791248D01*
X2642500Y2774997D02*
X2646250Y2778748D01*
X2641370Y2823627D02*
X2642055Y2824312D01*
X2605000Y2874997D02*
X2707500D01*
X2704270Y3374997D02*
X2707500D01*
X2625000Y3324997D02*
X2707500D01*
X1254800Y3376297D02*
X1295649Y3417147D01*
X1254750Y2823747D02*
X1293750Y2784748D01*
X1254392Y3226297D02*
X1254800Y3225889D01*
X1274876D01*
X1254800Y3376297D02*
X1296900D01*
X1249400D02*
X1254800D01*
X1253500Y3374997D02*
X1254800Y3376297D01*
X1248100Y3374997D02*
X1253500D01*
X1295649Y3417147D02*
Y3422547D01*
X1299400Y3426297D01*
X1248100Y3374997D02*
X1249400Y3376297D01*
X1296900D02*
X1299400Y3378797D01*
X1215600Y3374997D02*
X1248100D01*
X1215000D02*
X1215600D01*
X1215000Y3324997D02*
X1322500D01*
X1254750Y2823747D02*
X1296250D01*
X1246900D02*
X1254750D01*
X1253500Y2824997D02*
X1254750Y2823747D01*
X1215000Y2824997D02*
X1253500D01*
X1293750Y2778747D02*
Y2784748D01*
X1296250Y2823747D02*
X1297500Y2822497D01*
X1246900Y2775597D02*
Y2823747D01*
X1293750Y2778747D02*
X1297500Y2774997D01*
X1215000Y2874997D02*
X1330000D01*
X1215000Y2924997D02*
X1345000D01*
X1215600Y3374997D02*
X1216900Y3376297D01*
X1722500Y3167497D02*
Y3192497D01*
Y3167497D02*
X1774800Y3115197D01*
X1844800D01*
X1887500Y3072497D01*
Y2975397D02*
Y3072497D01*
X1447500Y3167497D02*
Y3192497D01*
X1306300Y3026297D02*
X1447500Y3167497D01*
D28*
X1615000Y3329997D02*
X1965000D01*
X2038168Y3256829D02*
X2097900D01*
X2137500Y3194997D02*
Y3217229D01*
X2097900Y3256829D02*
X2137500Y3217229D01*
X1965000Y3329997D02*
X2038168Y3256829D01*
X1585000Y3267497D02*
Y3299997D01*
X1615000Y3329997D01*
D29*
X3207500Y3604997D02*
D03*
Y2594997D02*
D03*
Y1094997D02*
D03*
Y2104997D02*
D03*
D30*
X950000Y3574997D02*
D03*
Y2624997D02*
D03*
D31*
X932486Y2059973D02*
D03*
X932485Y2464972D02*
D03*
D32*
X1409999Y1829997D02*
D03*
X2502500Y1107497D02*
D03*
X1390000Y1189997D02*
D03*
X1702500Y1099997D02*
D03*
X2460000Y2657497D02*
D03*
X1828750D02*
D03*
X2140000Y1374997D02*
D03*
X2902500Y2377497D02*
D03*
X2377500Y1594997D02*
D03*
Y1534997D02*
D03*
X2377348Y1655068D02*
D03*
X1642500Y2364997D02*
D03*
X1317500Y2477497D02*
D03*
X1507500Y2602497D02*
D03*
X1252500Y2332497D02*
D03*
X1125000Y1454997D02*
D03*
X1212500Y2074997D02*
D03*
X1425000Y2419997D02*
D03*
X2100000Y2397497D02*
D03*
X1832500Y2407497D02*
D03*
X1495000Y1309997D02*
D03*
X1210000Y1854997D02*
D03*
X1545000Y1479997D02*
D03*
X1395000Y1502497D02*
D03*
X1330000Y1584997D02*
D03*
X1868966Y1189997D02*
D03*
X1790630Y1370627D02*
D03*
X1790000Y2189997D02*
D03*
X1883594Y2178592D02*
D03*
X2114984Y2196110D02*
D03*
X2157500Y2254997D02*
D03*
X1885701Y1267912D02*
D03*
X1810000Y1094997D02*
D03*
X2607500Y2177497D02*
D03*
X2490000Y2279997D02*
D03*
X2405400Y1827497D02*
D03*
X2115000Y1194997D02*
D03*
X2680000Y2324997D02*
D03*
X2622500Y2309997D02*
D03*
X2807500Y2104997D02*
D03*
X2640000Y1924997D02*
D03*
X2895110Y2295005D02*
D03*
X2895200Y2244997D02*
D03*
X2992500Y2269997D02*
D03*
X2558399Y1758396D02*
D03*
X2640000Y1467773D02*
D03*
X2628074Y1550873D02*
D03*
X2642500Y1274997D02*
D03*
X2641370Y1323627D02*
D03*
X2615000Y1727497D02*
D03*
X3515000Y2204997D02*
D03*
X2045000Y1379997D02*
D03*
X1888516Y1375739D02*
D03*
X1249400Y3426297D02*
D03*
X1247500Y2774997D02*
D03*
X1275768Y3226782D02*
D03*
X2690000Y3416546D02*
D03*
Y2783448D02*
D03*
X2686249Y1920296D02*
D03*
X2690000Y1283448D02*
D03*
X1000000Y3560397D02*
D03*
X950000D02*
D03*
X900000D02*
D03*
X1000000Y2639597D02*
D03*
X950000D02*
D03*
X900000D02*
D03*
X2382500Y1354997D02*
D03*
X2612500Y1617497D02*
D03*
X2475000Y1812497D02*
D03*
X2400000Y2204997D02*
D03*
X2352500Y2467497D02*
D03*
X2207500Y2542497D02*
D03*
X1995000Y2467497D02*
D03*
X1876250Y2501247D02*
D03*
X1172500Y2557497D02*
D03*
X2402500Y2915490D02*
D03*
X2460195Y2914946D02*
D03*
X3272500Y2442497D02*
D03*
X1232500Y1119997D02*
D03*
X952500Y1179997D02*
D03*
X1175000Y1317497D02*
D03*
X1402500Y1349997D02*
D03*
X3337500Y2282497D02*
D03*
X2162500Y1314997D02*
D03*
X2490000Y2004997D02*
D03*
X1715000Y2277497D02*
D03*
X1317500Y2194997D02*
D03*
X1520000Y2312497D02*
D03*
X2337500Y1277497D02*
D03*
X1115000Y1677497D02*
D03*
X1460000Y1749997D02*
D03*
X1127500Y1862497D02*
D03*
X1125000Y2007497D02*
D03*
X945000Y1979997D02*
D03*
X1885000Y3194997D02*
D03*
X950000Y2592497D02*
D03*
X1000000D02*
D03*
X900000D02*
D03*
X1000000Y3607497D02*
D03*
X900000D02*
D03*
X950000D02*
D03*
X3207500Y1094997D02*
D03*
X3107500D02*
D03*
X3007500D02*
D03*
X2907500D02*
D03*
X2807500D02*
D03*
X3607500D02*
D03*
X3507500D02*
D03*
X3407500D02*
D03*
X3307500D02*
D03*
X3207500Y2104997D02*
D03*
X3107500D02*
D03*
X3007500D02*
D03*
X2907500D02*
D03*
X3607500D02*
D03*
X3507500D02*
D03*
X3407500D02*
D03*
X3307500D02*
D03*
X3207500Y2594997D02*
D03*
X3107500D02*
D03*
X3007500D02*
D03*
X2907500D02*
D03*
X2807500D02*
D03*
X3607500D02*
D03*
X3507500D02*
D03*
X3407500D02*
D03*
X3307500D02*
D03*
Y3604997D02*
D03*
X3407500D02*
D03*
X3507500D02*
D03*
X3607500D02*
D03*
X2807500D02*
D03*
X2907500D02*
D03*
X3007500D02*
D03*
X3107500D02*
D03*
X3207500D02*
D03*
X2562500Y3119997D02*
D03*
X1342900Y3172897D02*
D03*
X1585000Y3299997D02*
D03*
X1550000Y3262497D02*
D03*
X1620000Y3262497D02*
D03*
X2452500Y3312497D02*
D03*
X2402500D02*
D03*
X2512500Y3229997D02*
D03*
X2587500Y2962497D02*
D03*
X2637500D02*
D03*
X2515000Y2974997D02*
D03*
X2596280Y3169397D02*
D03*
X2611939Y3072897D02*
D03*
X2641370Y1876367D02*
D03*
Y2823627D02*
D03*
X2642500Y2774997D02*
D03*
Y3424997D02*
D03*
X2641370Y3376367D02*
D03*
X1299400Y3426297D02*
D03*
Y3378797D02*
D03*
X1297500Y2822497D02*
D03*
Y2774997D02*
D03*
X1887500Y2975397D02*
D03*
X1770189Y2914851D02*
D03*
X1712500Y2915944D02*
D03*
X1985000Y3194997D02*
D03*
X1280000Y2974997D02*
D03*
D33*
X2190000Y1559997D02*
D03*
X2080000D02*
D03*
X1970000D02*
D03*
X1860000D02*
D03*
X1750000D02*
D03*
X2190000Y1669997D02*
D03*
X2080000D02*
D03*
X1970000D02*
D03*
X1860000D02*
D03*
X1750000D02*
D03*
X2190000Y1779997D02*
D03*
X2080000D02*
D03*
X1970000D02*
D03*
X1860000D02*
D03*
X1750000D02*
D03*
X2190000Y1889997D02*
D03*
X2080000D02*
D03*
X1970000D02*
D03*
X1860000D02*
D03*
X1750000D02*
D03*
X2190000Y1999997D02*
D03*
X2080000D02*
D03*
X1970000D02*
D03*
X1860000D02*
D03*
X1750000D02*
D03*
%TF.MD5,cc4ab5ad48a952d7670fa2f05b2a7983*%
M02*
